<mxfile host="app.diagrams.net" agent="Mozilla/5.0 (Windows NT 10.0; Win64; x64) AppleWebKit/537.36 (KHTML, like Gecko) Chrome/137.0.0.0 Safari/537.36" version="27.1.6">
  <diagram name="Page-1" id="nA8R2Uflea7_MUQeuWz6">
    <mxGraphModel dx="2276" dy="1851" grid="1" gridSize="10" guides="1" tooltips="1" connect="1" arrows="1" fold="1" page="1" pageScale="1" pageWidth="850" pageHeight="1100" math="0" shadow="0">
      <root>
        <mxCell id="0" />
        <mxCell id="1" parent="0" />
        <mxCell id="Q4N4TB07SpjPwnumBZzV-1" value="Welcome to Treasure Island. Find the lost treasure and Win!" style="rounded=1;whiteSpace=wrap;html=1;fillColor=#dae8fc;strokeColor=#6c8ebf;" parent="1" vertex="1">
          <mxGeometry x="-45" y="-850" width="120" height="60" as="geometry" />
        </mxCell>
        <mxCell id="Q4N4TB07SpjPwnumBZzV-2" value="" style="endArrow=classic;html=1;rounded=0;" parent="1" edge="1">
          <mxGeometry width="50" height="50" relative="1" as="geometry">
            <mxPoint x="15" y="-790" as="sourcePoint" />
            <mxPoint x="15" y="-760" as="targetPoint" />
          </mxGeometry>
        </mxCell>
        <mxCell id="Q4N4TB07SpjPwnumBZzV-4" value="You find yourself awake in a forest. The campfire has died out. You don&#39;t seem to remember where you are. You find a path and walk towards it and come to a cross road. Do you want to go &#39;left&#39; or &#39;right&#39;?&amp;nbsp;" style="rounded=1;whiteSpace=wrap;html=1;fillColor=#dae8fc;strokeColor=#6c8ebf;" parent="1" vertex="1">
          <mxGeometry x="-165" y="-760" width="360" height="60" as="geometry" />
        </mxCell>
        <mxCell id="Q4N4TB07SpjPwnumBZzV-5" value="" style="endArrow=classic;html=1;rounded=0;" parent="1" edge="1">
          <mxGeometry width="50" height="50" relative="1" as="geometry">
            <mxPoint x="150" y="-700" as="sourcePoint" />
            <mxPoint x="150" y="-650" as="targetPoint" />
          </mxGeometry>
        </mxCell>
        <mxCell id="Q4N4TB07SpjPwnumBZzV-6" value="" style="endArrow=classic;html=1;rounded=0;" parent="1" edge="1">
          <mxGeometry width="50" height="50" relative="1" as="geometry">
            <mxPoint x="-130" y="-700" as="sourcePoint" />
            <mxPoint x="-130" y="-650" as="targetPoint" />
          </mxGeometry>
        </mxCell>
        <mxCell id="Q4N4TB07SpjPwnumBZzV-7" value="You keep walking down the path until you reach a beach. Nothing but water. Look at the distance and see a small island not too far. Do you want to &#39;swim&#39; to it or &#39;look for a boat&#39;. ?" style="rounded=1;whiteSpace=wrap;html=1;fillColor=#d5e8d4;strokeColor=#82b366;" parent="1" vertex="1">
          <mxGeometry x="-390" y="-650" width="300" height="60" as="geometry" />
        </mxCell>
        <mxCell id="Q4N4TB07SpjPwnumBZzV-8" value="You reach a wooded area. Nothing but trees surround you. You hear noises within the forest. Do you &#39;investigate&#39; or &#39;go back&#39; once you came?&amp;nbsp;" style="rounded=1;whiteSpace=wrap;html=1;fillColor=#dae8fc;strokeColor=#6c8ebf;" parent="1" vertex="1">
          <mxGeometry x="110" y="-650" width="160" height="80" as="geometry" />
        </mxCell>
        <mxCell id="Q4N4TB07SpjPwnumBZzV-9" value="Left" style="text;html=1;align=center;verticalAlign=middle;resizable=0;points=[];autosize=1;strokeColor=none;fillColor=none;" parent="1" vertex="1">
          <mxGeometry x="-170" y="-680" width="40" height="30" as="geometry" />
        </mxCell>
        <mxCell id="Q4N4TB07SpjPwnumBZzV-11" value="Right" style="text;html=1;align=center;verticalAlign=middle;resizable=0;points=[];autosize=1;strokeColor=none;fillColor=none;" parent="1" vertex="1">
          <mxGeometry x="145" y="-692" width="50" height="30" as="geometry" />
        </mxCell>
        <mxCell id="Q4N4TB07SpjPwnumBZzV-15" value="" style="endArrow=none;html=1;rounded=0;" parent="1" edge="1">
          <mxGeometry width="50" height="50" relative="1" as="geometry">
            <mxPoint x="230" y="-650" as="sourcePoint" />
            <mxPoint x="230" y="-730" as="targetPoint" />
          </mxGeometry>
        </mxCell>
        <mxCell id="Q4N4TB07SpjPwnumBZzV-16" value="" style="endArrow=classic;html=1;rounded=0;entryX=1;entryY=0.5;entryDx=0;entryDy=0;" parent="1" target="Q4N4TB07SpjPwnumBZzV-4" edge="1">
          <mxGeometry width="50" height="50" relative="1" as="geometry">
            <mxPoint x="230" y="-730" as="sourcePoint" />
            <mxPoint x="280" y="-780" as="targetPoint" />
          </mxGeometry>
        </mxCell>
        <mxCell id="Q4N4TB07SpjPwnumBZzV-17" value="Go Back" style="text;html=1;align=center;verticalAlign=middle;resizable=0;points=[];autosize=1;strokeColor=none;fillColor=none;" parent="1" vertex="1">
          <mxGeometry x="220" y="-692" width="70" height="30" as="geometry" />
        </mxCell>
        <mxCell id="Q4N4TB07SpjPwnumBZzV-18" value="" style="endArrow=classic;html=1;rounded=0;entryX=0.231;entryY=0;entryDx=0;entryDy=0;entryPerimeter=0;" parent="1" target="Q4N4TB07SpjPwnumBZzV-20" edge="1">
          <mxGeometry width="50" height="50" relative="1" as="geometry">
            <mxPoint x="190" y="-570" as="sourcePoint" />
            <mxPoint x="190" y="-530" as="targetPoint" />
          </mxGeometry>
        </mxCell>
        <mxCell id="Q4N4TB07SpjPwnumBZzV-20" value="You investigated the noise. Turns out it was a goblins looking for loot. They see you eyeing them. They pull out their swords and chase you. Do you &#39;run back&#39; where you came or &#39;pick up a weapon&#39; and fight them.&amp;nbsp;" style="rounded=1;whiteSpace=wrap;html=1;fillColor=#dae8fc;strokeColor=#6c8ebf;" parent="1" vertex="1">
          <mxGeometry x="130" y="-540" width="260" height="70" as="geometry" />
        </mxCell>
        <mxCell id="Q4N4TB07SpjPwnumBZzV-21" value="" style="endArrow=classic;html=1;rounded=0;exitX=0.962;exitY=0;exitDx=0;exitDy=0;exitPerimeter=0;" parent="1" edge="1">
          <mxGeometry width="50" height="50" relative="1" as="geometry">
            <mxPoint x="340.1199999999999" y="-540" as="sourcePoint" />
            <mxPoint x="340" y="-710" as="targetPoint" />
            <Array as="points">
              <mxPoint x="340" y="-670" />
            </Array>
          </mxGeometry>
        </mxCell>
        <mxCell id="Q4N4TB07SpjPwnumBZzV-22" value="You trip on a branch running away. The goblin catches up to you and kills you. Game Over" style="rounded=1;whiteSpace=wrap;html=1;fillColor=#f8cecc;strokeColor=#b85450;" parent="1" vertex="1">
          <mxGeometry x="320" y="-780" width="120" height="70" as="geometry" />
        </mxCell>
        <mxCell id="Q4N4TB07SpjPwnumBZzV-23" value="Run back" style="text;html=1;align=center;verticalAlign=middle;resizable=0;points=[];autosize=1;strokeColor=none;fillColor=none;" parent="1" vertex="1">
          <mxGeometry x="345" y="-650" width="70" height="30" as="geometry" />
        </mxCell>
        <mxCell id="Q4N4TB07SpjPwnumBZzV-28" value="Investigate" style="text;html=1;align=center;verticalAlign=middle;resizable=0;points=[];autosize=1;strokeColor=none;fillColor=none;" parent="1" vertex="1">
          <mxGeometry x="120" y="-570" width="80" height="30" as="geometry" />
        </mxCell>
        <mxCell id="Q4N4TB07SpjPwnumBZzV-29" value="" style="endArrow=classic;html=1;rounded=0;entryX=0.25;entryY=1;entryDx=0;entryDy=0;" parent="1" target="Q4N4TB07SpjPwnumBZzV-30" edge="1">
          <mxGeometry width="50" height="50" relative="1" as="geometry">
            <mxPoint x="-330" y="-650" as="sourcePoint" />
            <mxPoint x="-330" y="-770" as="targetPoint" />
          </mxGeometry>
        </mxCell>
        <mxCell id="Q4N4TB07SpjPwnumBZzV-30" value="You attempt to swim to the island. Halfway though you notice sharks are circling you. You tire out and cant stay up. The sharks come up and eat you. Game Over" style="rounded=1;whiteSpace=wrap;html=1;fillColor=#f8cecc;strokeColor=#b85450;" parent="1" vertex="1">
          <mxGeometry x="-390" y="-820" width="230" height="60" as="geometry" />
        </mxCell>
        <mxCell id="Q4N4TB07SpjPwnumBZzV-31" value="Swim" style="text;html=1;align=center;verticalAlign=middle;resizable=0;points=[];autosize=1;strokeColor=none;fillColor=none;" parent="1" vertex="1">
          <mxGeometry x="-330" y="-722" width="50" height="30" as="geometry" />
        </mxCell>
        <mxCell id="Q4N4TB07SpjPwnumBZzV-32" value="" style="endArrow=classic;html=1;rounded=0;entryX=0.466;entryY=-0.014;entryDx=0;entryDy=0;entryPerimeter=0;" parent="1" target="Q4N4TB07SpjPwnumBZzV-33" edge="1">
          <mxGeometry width="50" height="50" relative="1" as="geometry">
            <mxPoint x="-250" y="-590" as="sourcePoint" />
            <mxPoint x="-199.70588235294122" y="-551.9999999999999" as="targetPoint" />
          </mxGeometry>
        </mxCell>
        <mxCell id="Q4N4TB07SpjPwnumBZzV-33" value="You look around for a boat and eventually you find one not too far. You pick up the oar and start rowing to the island. Halfway through you notice sharks are circling you. Do you &#39;hit them&#39; with the oar or &#39;keep rowing&#39;?" style="rounded=1;whiteSpace=wrap;html=1;fillColor=#d5e8d4;strokeColor=#82b366;" parent="1" vertex="1">
          <mxGeometry x="-390" y="-552" width="300" height="60" as="geometry" />
        </mxCell>
        <mxCell id="Q4N4TB07SpjPwnumBZzV-34" value="Look for a boat" style="text;html=1;align=center;verticalAlign=middle;resizable=0;points=[];autosize=1;strokeColor=none;fillColor=none;" parent="1" vertex="1">
          <mxGeometry x="-250" y="-590" width="100" height="30" as="geometry" />
        </mxCell>
        <mxCell id="Q4N4TB07SpjPwnumBZzV-36" value="" style="endArrow=classic;html=1;rounded=0;" parent="1" target="Q4N4TB07SpjPwnumBZzV-37" edge="1">
          <mxGeometry width="50" height="50" relative="1" as="geometry">
            <mxPoint x="-390" y="-520" as="sourcePoint" />
            <mxPoint x="-380" y="-870" as="targetPoint" />
            <Array as="points">
              <mxPoint x="-410" y="-520" />
              <mxPoint x="-410" y="-870" />
            </Array>
          </mxGeometry>
        </mxCell>
        <mxCell id="Q4N4TB07SpjPwnumBZzV-37" value="The sharks took offense you hit them and attack the boat. You capsize and they eat you. Game Over" style="rounded=1;whiteSpace=wrap;html=1;fillColor=#f8cecc;strokeColor=#b85450;" parent="1" vertex="1">
          <mxGeometry x="-390" y="-900" width="190" height="60" as="geometry" />
        </mxCell>
        <mxCell id="Q4N4TB07SpjPwnumBZzV-38" value="" style="rounded=0;whiteSpace=wrap;html=1;fillColor=#dae8fc;strokeColor=#6c8ebf;" parent="1" vertex="1">
          <mxGeometry x="150" y="-1010" width="30" height="30" as="geometry" />
        </mxCell>
        <mxCell id="Q4N4TB07SpjPwnumBZzV-39" value="" style="rounded=0;whiteSpace=wrap;html=1;fillColor=#f8cecc;strokeColor=#b85450;" parent="1" vertex="1">
          <mxGeometry x="150" y="-970" width="30" height="30" as="geometry" />
        </mxCell>
        <mxCell id="Q4N4TB07SpjPwnumBZzV-40" value="" style="rounded=0;whiteSpace=wrap;html=1;fillColor=#d5e8d4;strokeColor=#82b366;" parent="1" vertex="1">
          <mxGeometry x="150" y="-930" width="30" height="30" as="geometry" />
        </mxCell>
        <mxCell id="Q4N4TB07SpjPwnumBZzV-41" value="Legends" style="text;html=1;align=center;verticalAlign=middle;resizable=0;points=[];autosize=1;strokeColor=none;fillColor=none;" parent="1" vertex="1">
          <mxGeometry x="135" y="-1040" width="70" height="30" as="geometry" />
        </mxCell>
        <mxCell id="Q4N4TB07SpjPwnumBZzV-42" value="Story text" style="text;html=1;align=center;verticalAlign=middle;resizable=0;points=[];autosize=1;strokeColor=none;fillColor=none;" parent="1" vertex="1">
          <mxGeometry x="190" y="-1010" width="70" height="30" as="geometry" />
        </mxCell>
        <mxCell id="Q4N4TB07SpjPwnumBZzV-43" value="Game Over&amp;nbsp;" style="text;html=1;align=center;verticalAlign=middle;resizable=0;points=[];autosize=1;strokeColor=none;fillColor=none;" parent="1" vertex="1">
          <mxGeometry x="190" y="-970" width="90" height="30" as="geometry" />
        </mxCell>
        <mxCell id="Q4N4TB07SpjPwnumBZzV-44" value="Going the right path" style="text;html=1;align=center;verticalAlign=middle;resizable=0;points=[];autosize=1;strokeColor=none;fillColor=none;" parent="1" vertex="1">
          <mxGeometry x="180" y="-930" width="130" height="30" as="geometry" />
        </mxCell>
        <mxCell id="Q4N4TB07SpjPwnumBZzV-45" value="" style="endArrow=classic;html=1;rounded=0;" parent="1" target="Q4N4TB07SpjPwnumBZzV-46" edge="1">
          <mxGeometry width="50" height="50" relative="1" as="geometry">
            <mxPoint x="-250" y="-490" as="sourcePoint" />
            <mxPoint x="-250" y="-450" as="targetPoint" />
          </mxGeometry>
        </mxCell>
        <mxCell id="Q4N4TB07SpjPwnumBZzV-46" value="The sharks ignore you. You make it to the small island and notice a huge abandoned castle. You noticed its in ruins. As you walk up to the castle doors, you notice its very creepy and dark. Do you &#39;look for a light source&#39; or find your way &#39;through the dark&#39;?" style="rounded=1;whiteSpace=wrap;html=1;fillColor=#d5e8d4;strokeColor=#82b366;" parent="1" vertex="1">
          <mxGeometry x="-400" y="-430" width="300" height="80" as="geometry" />
        </mxCell>
        <mxCell id="Q4N4TB07SpjPwnumBZzV-47" value="Keep rowing" style="text;html=1;align=center;verticalAlign=middle;resizable=0;points=[];autosize=1;strokeColor=none;fillColor=none;" parent="1" vertex="1">
          <mxGeometry x="-250" y="-480" width="90" height="30" as="geometry" />
        </mxCell>
        <mxCell id="Q4N4TB07SpjPwnumBZzV-48" value="" style="endArrow=classic;html=1;rounded=0;" parent="1" target="Q4N4TB07SpjPwnumBZzV-49" edge="1">
          <mxGeometry width="50" height="50" relative="1" as="geometry">
            <mxPoint x="-400" y="-400" as="sourcePoint" />
            <mxPoint x="-480" y="-520" as="targetPoint" />
            <Array as="points">
              <mxPoint x="-440" y="-400" />
              <mxPoint x="-440" y="-520" />
            </Array>
          </mxGeometry>
        </mxCell>
        <mxCell id="Q4N4TB07SpjPwnumBZzV-49" value="You try to make your way though the dark. The sun barely lighting the area. As you feel around for open spaces or doorways, you come across what seems to be a lever. Do you &#39;pull on it&#39; or &#39;keep walking&#39;?" style="rounded=1;whiteSpace=wrap;html=1;fillColor=#dae8fc;strokeColor=#6c8ebf;" parent="1" vertex="1">
          <mxGeometry x="-770" y="-552" width="290" height="60" as="geometry" />
        </mxCell>
        <mxCell id="Q4N4TB07SpjPwnumBZzV-50" value="Make your way through the dark" style="text;html=1;align=center;verticalAlign=middle;resizable=0;points=[];autosize=1;strokeColor=none;fillColor=none;" parent="1" vertex="1">
          <mxGeometry x="-440" y="-480" width="190" height="30" as="geometry" />
        </mxCell>
        <mxCell id="Q4N4TB07SpjPwnumBZzV-51" value="" style="endArrow=classic;html=1;rounded=0;" parent="1" target="Q4N4TB07SpjPwnumBZzV-52" edge="1">
          <mxGeometry width="50" height="50" relative="1" as="geometry">
            <mxPoint x="-640" y="-490" as="sourcePoint" />
            <mxPoint x="-640" y="-440" as="targetPoint" />
          </mxGeometry>
        </mxCell>
        <mxCell id="Q4N4TB07SpjPwnumBZzV-52" value="" style="rounded=1;whiteSpace=wrap;html=1;" parent="1" vertex="1">
          <mxGeometry x="-700" y="-450" width="120" height="60" as="geometry" />
        </mxCell>
        <mxCell id="Q4N4TB07SpjPwnumBZzV-53" value="" style="endArrow=classic;html=1;rounded=0;" parent="1" target="Q4N4TB07SpjPwnumBZzV-54" edge="1">
          <mxGeometry width="50" height="50" relative="1" as="geometry">
            <mxPoint x="-640" y="-550" as="sourcePoint" />
            <mxPoint x="-640" y="-600" as="targetPoint" />
          </mxGeometry>
        </mxCell>
        <mxCell id="Q4N4TB07SpjPwnumBZzV-54" value="You kept walking in the dark, unsure what lurks in it. Eventually you walk through a doorway and stepped on a button. The walls closes, spikes comes out of the ceiling as it comes down on you. It crushes you. Game over" style="rounded=1;whiteSpace=wrap;html=1;fillColor=#f8cecc;strokeColor=#b85450;" parent="1" vertex="1">
          <mxGeometry x="-820" y="-665" width="360" height="60" as="geometry" />
        </mxCell>
        <mxCell id="Q4N4TB07SpjPwnumBZzV-55" value="" style="endArrow=classic;html=1;rounded=0;" parent="1" target="Q4N4TB07SpjPwnumBZzV-56" edge="1">
          <mxGeometry width="50" height="50" relative="1" as="geometry">
            <mxPoint x="390" y="-500" as="sourcePoint" />
            <mxPoint x="440" y="-500" as="targetPoint" />
          </mxGeometry>
        </mxCell>
        <mxCell id="Q4N4TB07SpjPwnumBZzV-56" value="You fight pick up a large branch and swing it at the goblins. In fear, they run away. You won the fight and awarded yourself one of their swords. &#39;Keep walking the path&#39;" style="rounded=1;whiteSpace=wrap;html=1;fillColor=#dae8fc;strokeColor=#6c8ebf;" parent="1" vertex="1">
          <mxGeometry x="530" y="-530" width="230" height="60" as="geometry" />
        </mxCell>
        <mxCell id="Q4N4TB07SpjPwnumBZzV-57" value="" style="endArrow=classic;html=1;rounded=0;" parent="1" edge="1">
          <mxGeometry width="50" height="50" relative="1" as="geometry">
            <mxPoint x="560" y="-470" as="sourcePoint" />
            <mxPoint x="560" y="-440" as="targetPoint" />
          </mxGeometry>
        </mxCell>
        <mxCell id="Q4N4TB07SpjPwnumBZzV-59" value="Eventually you find yourself at a beach and a boat on the shore. You see in the horizon a small island with a castle. Do you &#39;take the boat&#39;, &#39;swim&#39; to the island, or &#39;stay on land&#39; and look around" style="rounded=1;whiteSpace=wrap;html=1;fillColor=#dae8fc;strokeColor=#6c8ebf;" parent="1" vertex="1">
          <mxGeometry x="290" y="-440" width="330" height="60" as="geometry" />
        </mxCell>
        <mxCell id="Q4N4TB07SpjPwnumBZzV-61" value="Pick up a weapon" style="text;html=1;align=center;verticalAlign=middle;resizable=0;points=[];autosize=1;strokeColor=none;fillColor=none;" parent="1" vertex="1">
          <mxGeometry x="400" y="-530" width="120" height="30" as="geometry" />
        </mxCell>
        <mxCell id="1xcX0UhDIfoTsEDtwq6d-1" value="" style="endArrow=classic;html=1;rounded=0;" edge="1" parent="1" target="1xcX0UhDIfoTsEDtwq6d-2">
          <mxGeometry width="50" height="50" relative="1" as="geometry">
            <mxPoint x="290" y="-410" as="sourcePoint" />
            <mxPoint x="180" y="-410" as="targetPoint" />
          </mxGeometry>
        </mxCell>
        <mxCell id="1xcX0UhDIfoTsEDtwq6d-2" value="You took the boat to the island. Halfway through you notice sharks are circling you. Do you &#39;hit them&#39; with the oar or &#39;keep rowing&#39;" style="rounded=1;whiteSpace=wrap;html=1;fillColor=#d5e8d4;strokeColor=#82b366;" vertex="1" parent="1">
          <mxGeometry x="-15" y="-420" width="195" height="60" as="geometry" />
        </mxCell>
        <mxCell id="1xcX0UhDIfoTsEDtwq6d-3" value="Take the boat" style="text;html=1;align=center;verticalAlign=middle;resizable=0;points=[];autosize=1;strokeColor=none;fillColor=none;" vertex="1" parent="1">
          <mxGeometry x="180" y="-435" width="100" height="30" as="geometry" />
        </mxCell>
        <mxCell id="1xcX0UhDIfoTsEDtwq6d-4" value="" style="endArrow=classic;html=1;rounded=0;entryX=1;entryY=0.5;entryDx=0;entryDy=0;" edge="1" parent="1" target="Q4N4TB07SpjPwnumBZzV-46">
          <mxGeometry width="50" height="50" relative="1" as="geometry">
            <mxPoint x="-15" y="-390" as="sourcePoint" />
            <mxPoint x="35" y="-440" as="targetPoint" />
          </mxGeometry>
        </mxCell>
        <mxCell id="1xcX0UhDIfoTsEDtwq6d-5" value="Keep rowing" style="text;html=1;align=center;verticalAlign=middle;resizable=0;points=[];autosize=1;strokeColor=none;fillColor=none;" vertex="1" parent="1">
          <mxGeometry x="-100" y="-420" width="90" height="30" as="geometry" />
        </mxCell>
        <mxCell id="1xcX0UhDIfoTsEDtwq6d-6" value="" style="endArrow=classic;html=1;rounded=0;entryX=0.011;entryY=0.15;entryDx=0;entryDy=0;entryPerimeter=0;" edge="1" parent="1" target="Q4N4TB07SpjPwnumBZzV-37">
          <mxGeometry width="50" height="50" relative="1" as="geometry">
            <mxPoint x="30" y="-420" as="sourcePoint" />
            <mxPoint x="-440" y="-890" as="targetPoint" />
            <Array as="points">
              <mxPoint x="30" y="-680" />
              <mxPoint x="-150" y="-680" />
              <mxPoint x="-480" y="-680" />
              <mxPoint x="-480" y="-890" />
            </Array>
          </mxGeometry>
        </mxCell>
        <mxCell id="1xcX0UhDIfoTsEDtwq6d-7" value="" style="endArrow=classic;html=1;rounded=0;entryX=1.022;entryY=0.65;entryDx=0;entryDy=0;entryPerimeter=0;" edge="1" parent="1" target="Q4N4TB07SpjPwnumBZzV-30">
          <mxGeometry width="50" height="50" relative="1" as="geometry">
            <mxPoint x="500" y="-440" as="sourcePoint" />
            <mxPoint x="-100" y="-780" as="targetPoint" />
            <Array as="points">
              <mxPoint x="490" y="-880" />
              <mxPoint x="-80" y="-880" />
              <mxPoint x="-80" y="-780" />
            </Array>
          </mxGeometry>
        </mxCell>
        <mxCell id="1xcX0UhDIfoTsEDtwq6d-8" value="Swim to the island" style="text;html=1;align=center;verticalAlign=middle;resizable=0;points=[];autosize=1;strokeColor=none;fillColor=none;" vertex="1" parent="1">
          <mxGeometry x="390" y="-465" width="120" height="30" as="geometry" />
        </mxCell>
        <mxCell id="1xcX0UhDIfoTsEDtwq6d-9" value="" style="endArrow=classic;html=1;rounded=0;" edge="1" parent="1">
          <mxGeometry width="50" height="50" relative="1" as="geometry">
            <mxPoint x="620" y="-400.5" as="sourcePoint" />
            <mxPoint x="750" y="-400.5" as="targetPoint" />
          </mxGeometry>
        </mxCell>
        <mxCell id="1xcX0UhDIfoTsEDtwq6d-10" value="You stayed on land." style="rounded=1;whiteSpace=wrap;html=1;" vertex="1" parent="1">
          <mxGeometry x="750" y="-430" width="120" height="60" as="geometry" />
        </mxCell>
        <mxCell id="1xcX0UhDIfoTsEDtwq6d-11" value="Stay on land" style="text;html=1;align=center;verticalAlign=middle;resizable=0;points=[];autosize=1;strokeColor=none;fillColor=none;" vertex="1" parent="1">
          <mxGeometry x="640" y="-430" width="90" height="30" as="geometry" />
        </mxCell>
        <mxCell id="1xcX0UhDIfoTsEDtwq6d-13" value="" style="endArrow=classic;html=1;rounded=0;" edge="1" parent="1" target="1xcX0UhDIfoTsEDtwq6d-14">
          <mxGeometry width="50" height="50" relative="1" as="geometry">
            <mxPoint x="-240" y="-350" as="sourcePoint" />
            <mxPoint x="-240" y="-290" as="targetPoint" />
          </mxGeometry>
        </mxCell>
        <mxCell id="1xcX0UhDIfoTsEDtwq6d-14" value="" style="rounded=1;whiteSpace=wrap;html=1;" vertex="1" parent="1">
          <mxGeometry x="-300" y="-280" width="120" height="60" as="geometry" />
        </mxCell>
        <mxCell id="1xcX0UhDIfoTsEDtwq6d-15" value="Look for a light source" style="text;html=1;align=center;verticalAlign=middle;resizable=0;points=[];autosize=1;strokeColor=none;fillColor=none;" vertex="1" parent="1">
          <mxGeometry x="-250" y="-330" width="140" height="30" as="geometry" />
        </mxCell>
        <mxCell id="1xcX0UhDIfoTsEDtwq6d-16" value="Pull on it" style="text;html=1;align=center;verticalAlign=middle;resizable=0;points=[];autosize=1;strokeColor=none;fillColor=none;" vertex="1" parent="1">
          <mxGeometry x="-640" y="-492" width="70" height="30" as="geometry" />
        </mxCell>
      </root>
    </mxGraphModel>
  </diagram>
</mxfile>
